<svg xmlns="http://www.w3.org/2000/svg" xmlns:xlink="http://www.w3.org/1999/xlink" contentStyleType="text/css" data-diagram-type="CLASS" height="344px" preserveAspectRatio="none" style="width:373px;height:344px;background:#FFFFFF;" version="1.1" viewBox="0 0 373 344" width="373px" zoomAndPan="magnify"><defs/><g><!--class Customer--><g class="entity" data-entity="Customer" data-source-line="2" data-uid="ent0002" id="entity_Customer"><rect fill="#F1F1F1" height="64.2969" rx="2.5" ry="2.5" style="stroke:#181818;stroke-width:0.5;" width="161.9941" x="105.43" y="148.3"/><ellipse cx="148.3256" cy="164.3" fill="#A9DCDF" rx="11" ry="11" style="stroke:#181818;stroke-width:1;"/><path d="M148.435,159.6437 L147.2787,164.7219 L149.6069,164.7219 L148.435,159.6437 Z M146.9506,157.4094 L149.935,157.4094 L153.2944,169.8 L150.8412,169.8 L150.0756,166.7375 L146.7944,166.7375 L146.0444,169.8 L143.6069,169.8 L146.9506,157.4094 Z " fill="#000000"/><text fill="#000000" font-family="sans-serif" font-size="14" font-style="italic" lengthAdjust="spacing" textLength="68.0039" x="168.5246" y="169.1467">Customer</text><line style="stroke:#181818;stroke-width:0.5;" x1="106.43" x2="266.4241" y1="180.3" y2="180.3"/><line style="stroke:#181818;stroke-width:0.5;" x1="106.43" x2="266.4241" y1="188.3" y2="188.3"/><ellipse cx="116.43" cy="201.9484" fill="#84BE84" rx="3" ry="3" style="stroke:#038048;stroke-width:1;"/><text fill="#000000" font-family="sans-serif" font-size="14" font-style="italic" lengthAdjust="spacing" textLength="135.9941" x="125.43" y="205.2951">getDiscount(): float</text></g><!--class PremiumCustomer--><g class="entity" data-entity="PremiumCustomer" data-source-line="6" data-uid="ent0003" id="entity_PremiumCustomer"><rect fill="#F1F1F1" height="64.2969" rx="2.5" ry="2.5" style="stroke:#181818;stroke-width:0.5;" width="162.8535" x="7" y="273.59"/><ellipse cx="22" cy="289.59" fill="#ADD1B2" rx="11" ry="11" style="stroke:#181818;stroke-width:1;"/><path d="M24.9688,295.2306 Q24.3906,295.5275 23.75,295.6681 Q23.1094,295.8244 22.4063,295.8244 Q19.9063,295.8244 18.5781,294.1838 Q17.2656,292.5275 17.2656,289.4025 Q17.2656,286.2775 18.5781,284.6213 Q19.9063,282.965 22.4063,282.965 Q23.1094,282.965 23.75,283.1213 Q24.4063,283.2775 24.9688,283.5744 L24.9688,286.2931 Q24.3438,285.715 23.75,285.4494 Q23.1563,285.1681 22.5313,285.1681 Q21.1875,285.1681 20.5,286.2463 Q19.8125,287.3088 19.8125,289.4025 Q19.8125,291.4963 20.5,292.5744 Q21.1875,293.6369 22.5313,293.6369 Q23.1563,293.6369 23.75,293.3713 Q24.3438,293.09 24.9688,292.5119 L24.9688,295.2306 Z " fill="#000000"/><text fill="#000000" font-family="sans-serif" font-size="14" lengthAdjust="spacing" textLength="130.8535" x="36" y="294.4367">PremiumCustomer</text><line style="stroke:#181818;stroke-width:0.5;" x1="8" x2="168.8535" y1="305.59" y2="305.59"/><line style="stroke:#181818;stroke-width:0.5;" x1="8" x2="168.8535" y1="313.59" y2="313.59"/><ellipse cx="18" cy="327.2384" fill="#84BE84" rx="3" ry="3" style="stroke:#038048;stroke-width:1;"/><text fill="#000000" font-family="sans-serif" font-size="14" lengthAdjust="spacing" textLength="135.9941" x="27" y="330.5851">getDiscount(): float</text></g><!--class RegularCustomer--><g class="entity" data-entity="RegularCustomer" data-source-line="10" data-uid="ent0005" id="entity_RegularCustomer"><rect fill="#F1F1F1" height="64.2969" rx="2.5" ry="2.5" style="stroke:#181818;stroke-width:0.5;" width="161.9941" x="204.43" y="273.59"/><ellipse cx="222.8793" cy="289.59" fill="#ADD1B2" rx="11" ry="11" style="stroke:#181818;stroke-width:1;"/><path d="M225.848,295.2306 Q225.2699,295.5275 224.6293,295.6681 Q223.9886,295.8244 223.2855,295.8244 Q220.7855,295.8244 219.4574,294.1838 Q218.1449,292.5275 218.1449,289.4025 Q218.1449,286.2775 219.4574,284.6213 Q220.7855,282.965 223.2855,282.965 Q223.9886,282.965 224.6293,283.1213 Q225.2855,283.2775 225.848,283.5744 L225.848,286.2931 Q225.223,285.715 224.6293,285.4494 Q224.0355,285.1681 223.4105,285.1681 Q222.0668,285.1681 221.3793,286.2463 Q220.6918,287.3088 220.6918,289.4025 Q220.6918,291.4963 221.3793,292.5744 Q222.0668,293.6369 223.4105,293.6369 Q224.0355,293.6369 224.6293,293.3713 Q225.223,293.09 225.848,292.5119 L225.848,295.2306 Z " fill="#000000"/><text fill="#000000" font-family="sans-serif" font-size="14" lengthAdjust="spacing" textLength="122.3291" x="237.6458" y="294.4367">RegularCustomer</text><line style="stroke:#181818;stroke-width:0.5;" x1="205.43" x2="365.4241" y1="305.59" y2="305.59"/><line style="stroke:#181818;stroke-width:0.5;" x1="205.43" x2="365.4241" y1="313.59" y2="313.59"/><ellipse cx="215.43" cy="327.2384" fill="#84BE84" rx="3" ry="3" style="stroke:#038048;stroke-width:1;"/><text fill="#000000" font-family="sans-serif" font-size="14" lengthAdjust="spacing" textLength="135.9941" x="224.43" y="330.5851">getDiscount(): float</text></g><!--class DiscountCalculator--><g class="entity" data-entity="DiscountCalculator" data-source-line="14" data-uid="ent0007" id="entity_DiscountCalculator"><rect fill="#F1F1F1" height="64.2969" rx="2.5" ry="2.5" style="stroke:#181818;stroke-width:0.5;" width="345.4092" x="13.72" y="7"/><ellipse cx="115.8968" cy="23" fill="#ADD1B2" rx="11" ry="11" style="stroke:#181818;stroke-width:1;"/><path d="M118.8655,28.6406 Q118.2874,28.9375 117.6468,29.0781 Q117.0061,29.2344 116.303,29.2344 Q113.803,29.2344 112.4749,27.5938 Q111.1624,25.9375 111.1624,22.8125 Q111.1624,19.6875 112.4749,18.0313 Q113.803,16.375 116.303,16.375 Q117.0061,16.375 117.6468,16.5313 Q118.303,16.6875 118.8655,16.9844 L118.8655,19.7031 Q118.2405,19.125 117.6468,18.8594 Q117.053,18.5781 116.428,18.5781 Q115.0843,18.5781 114.3968,19.6563 Q113.7093,20.7188 113.7093,22.8125 Q113.7093,24.9063 114.3968,25.9844 Q115.0843,27.0469 116.428,27.0469 Q117.053,27.0469 117.6468,26.7813 Q118.2405,26.5 118.8655,25.9219 L118.8655,28.6406 Z " fill="#000000"/><text fill="#000000" font-family="sans-serif" font-size="14" lengthAdjust="spacing" textLength="132.5557" x="136.3968" y="27.8467">DiscountCalculator</text><line style="stroke:#181818;stroke-width:0.5;" x1="14.72" x2="358.1292" y1="39" y2="39"/><line style="stroke:#181818;stroke-width:0.5;" x1="14.72" x2="358.1292" y1="47" y2="47"/><ellipse cx="24.72" cy="60.6484" fill="#84BE84" rx="3" ry="3" style="stroke:#038048;stroke-width:1;"/><text fill="#000000" font-family="sans-serif" font-size="14" lengthAdjust="spacing" textLength="319.4092" x="33.72" y="63.9951">calculateDiscount(customer: Customer): float</text></g><!--reverse link Customer to PremiumCustomer--><g class="link" data-entity-1="Customer" data-entity-2="PremiumCustomer" data-source-line="7" data-uid="lnk4" id="link_Customer_PremiumCustomer"><path d="M150.2419,226.9726 C135.5019,245.5226 128.1,254.83 113.36,273.37" fill="none" id="Customer-backto-PremiumCustomer" style="stroke:#181818;stroke-width:1;"/><polygon fill="none" points="161.44,212.88,145.5443,223.2399,154.9394,230.7053,161.44,212.88" style="stroke:#181818;stroke-width:1;"/></g><!--reverse link Customer to RegularCustomer--><g class="link" data-entity-1="Customer" data-entity-2="RegularCustomer" data-source-line="11" data-uid="lnk6" id="link_Customer_RegularCustomer"><path d="M222.9322,226.9135 C237.8322,245.4635 245.35,254.83 260.23,273.37" fill="none" id="Customer-backto-RegularCustomer" style="stroke:#181818;stroke-width:1;"/><polygon fill="none" points="211.66,212.88,218.2543,230.6709,227.61,223.1561,211.66,212.88" style="stroke:#181818;stroke-width:1;"/></g><!--link DiscountCalculator to Customer--><g class="link" data-entity-1="DiscountCalculator" data-entity-2="Customer" data-source-line="18" data-uid="lnk8" id="link_DiscountCalculator_Customer"><path codeLine="18" d="M186.43,71.76 C186.43,94.55 186.43,119.19 186.43,141.96" fill="none" id="DiscountCalculator-to-Customer" style="stroke:#181818;stroke-width:1;stroke-dasharray:7.0,7.0;"/><polygon fill="#181818" points="186.43,147.96,190.43,138.96,186.43,142.96,182.43,138.96,186.43,147.96" style="stroke:#181818;stroke-width:1;"/><text fill="#000000" font-family="sans-serif" font-size="13" lengthAdjust="spacing" textLength="29.7832" x="187.43" y="114.3669">uses</text></g><!--SRC=[hSxF2i8m30Rm-vxYkwa8Uu0TlCop3jyWTd4CsdKsAGXZxsx1_G4PU9503lcINxl3XHnBJuRHKo2akljGKyCEpyYWcaFg7jUoof12qK16OIo9e8oYtd70a3BWY65U6D6mdbinFdQwFnHuM4-QjiOijSzr5TYrqIq8lvIxUaFzJTsuYPR2FwWvBicQPAfVZyqqueKmaryiBtsZ6roUdzQF5OZ2yWO0]--></g></svg>